<svg xmlns="http://www.w3.org/2000/svg" width="64" height="64" fill="none" viewBox="0 0 64 64"><g fill="#fff" clip-path="url(#a)"><path d="M26.215 16.2q-.462.443-.965.804l5.287 6.52v-7.451a.806.806 0 0 0-.804-.805h-2.674a8.5 8.5 0 0 1-.844.932m-13.616-4.06q.202.662.516 1.266a7.3 7.3 0 0 0 1.407 1.87 7.8 7.8 0 0 0 5.42 2.157 7.9 7.9 0 0 0 4.188-1.193 8 8 0 0 0 1.233-.965c1.374-1.32 2.218-3.142 2.218-5.146 0-4.034-3.424-7.304-7.639-7.304s-7.638 3.27-7.638 7.304a6.8 6.8 0 0 0 .295 2.01m7.344-5.743c3.035 0 5.501 1.668 5.501 3.725s-2.466 3.726-5.501 3.726-5.502-1.669-5.502-3.726 2.466-3.725 5.502-3.725"/><path d="M4.639 12.42c.154.289.361.543.616.744l3.913 3.103 4.664 3.692a7.03 7.03 0 0 0-.958 3.558v36.659a3.15 3.15 0 0 0 6.298 0V48.718h1.535v11.458a3.15 3.15 0 0 0 6.299 0V28.723l2.626 3.317a2.31 2.31 0 0 0 1.843.885h7.746v29.128c0 .65.523 1.172 1.173 1.172a1.17 1.17 0 0 0 1.172-1.172V5.452a1.17 1.17 0 0 0-1.172-1.173 1.17 1.17 0 0 0-1.173 1.173V28.24h-6.607l-1.494-1.883s-6.265-7.773-7.103-8.61a9.14 9.14 0 0 1-4.067.944c-2.366 0-4.597-.884-6.272-2.486a10 10 0 0 1-.844-.924 8.3 8.3 0 0 1-1.588-3.357L8.572 9.807l-4.148-7.88a2.346 2.346 0 0 0-3.17-.985A2.34 2.34 0 0 0 .27 4.105zm39.165 5.95h19.392a.806.806 0 0 0 .804-.803V5.325a.806.806 0 0 0-.804-.804H43.804a.806.806 0 0 0-.804.804v12.242c0 .442.362.804.804.804"/><path d="M28.453 33.347v5.917h1.28a.806.806 0 0 0 .804-.804v-4.202a3.75 3.75 0 0 1-2.084-.911M9.979 38.118h1.561V23.517a8.5 8.5 0 0 1 .623-3.176l-2.988-2.366v19.339c0 .442.362.804.804.804"/></g><defs><clipPath id="a"><path fill="#fff" d="M0 0h64v64H0z"/></clipPath></defs></svg>