<svg xmlns="http://www.w3.org/2000/svg" width="30" height="30" fill="none" viewBox="0 0 30 30"><g clip-path="url(#a)"><path fill="#fff" fill-rule="evenodd" d="M3 15h15V6H3zM30 0h-9v18H3v3.276c-1.744.62-3 2.268-3 4.224a4.5 4.5 0 1 0 9 0c0-1.956-1.255-3.604-3-4.224V21h15v.276c-1.744.62-3 2.268-3 4.224a4.5 4.5 0 1 0 9 0c0-1.956-1.256-3.604-3-4.224V3h6zM4.5 23.926c.82.291 1.5.583 1.5 1.574 0 .826-.673 1.5-1.5 1.5-.826 0-1.5-.674-1.5-1.5 0-.991.68-1.283 1.5-1.574m18 0c.82.291 1.5.583 1.5 1.574 0 .826-.674 1.5-1.5 1.5s-1.5-.674-1.5-1.5c0-.991.68-1.283 1.5-1.574" clip-rule="evenodd"/></g><defs><clipPath id="a"><path fill="#fff" d="M0 0h30v30H0z"/></clipPath></defs></svg>