<svg xmlns="http://www.w3.org/2000/svg" xml:space="preserve" width="64" height="64" fill="#fff" stroke="#fff" viewBox="0 0 512 512"><path d="M468.317 18.866A64.25 64.25 0 0 0 422.794 0L232.63.008c-17.716-.016-33.93 7.232-45.532 18.858a64.28 64.28 0 0 0-18.858 45.523v51.053a64.23 64.23 0 0 0 18.866 45.514c5.522 5.538 12.111 10.034 19.392 13.278v102.522s-66.032-20.493-123.182 2.01C16.677 305.013 6.593 418.11 55.052 458.488h395.783V173.316c6.514-3.161 12.452-7.314 17.482-12.36a64.2 64.2 0 0 0 18.858-45.514V64.388a64.2 64.2 0 0 0-18.858-45.522zm-17.482 96.575c-.017 7.79-3.112 14.679-8.216 19.817-5.138 5.104-12.027 8.198-19.826 8.215H232.63c-7.79-.017-14.688-3.111-19.826-8.215-5.105-5.138-8.208-12.027-8.216-19.817V64.388c.008-7.79 3.111-14.687 8.216-19.817 5.137-5.113 12.036-8.216 19.826-8.216l190.164-.017c7.799.017 14.688 3.12 19.826 8.232 5.104 5.13 8.198 12.027 8.216 19.817v51.054zM46.97 481.707h403.865V512H46.97z" style="fill:#fff"/></svg>