<svg xmlns="http://www.w3.org/2000/svg" width="64" height="64" fill="none" viewBox="0 0 64 64"><path fill="#fff" d="M16.817 24.364a8.396 8.396 0 0 0 8.396-8.403c0-2.895 1.019-5.546-1.218-7.05-1.341-.914-7.23-1.346-8.97-1.346-2.069 0-4.76 1.687-6.223 2.931-1.821 1.538-.386 2.892-.386 5.462a8.396 8.396 0 0 0 8.401 8.406m-5.852-9.226c1.543-.28 2.591.228 2.591.228l2.578-1.255S14.82 16.008 16 15.366c2.625-.88 5.561-.513 7.054-.22.053.327.1.663.1 1.011 0 3.458-2.745 6.253-6.153 6.253-3.39 0-6.138-2.795-6.138-6.253 0-.348.047-.684.102-1.019m46.837-.356c-.04-.48-.078-.956-.183-1.417-.333-2.945-2.968-8.928-10.53-8.75-6.518.155-7.94 5.061-8.284 8.048a9.7 9.7 0 0 0-.43 2.3c-8.476 1.48-7.544 10.082-2.367 10.229-.493-4.493 1.65-7.19 2.475-8.058.762 4.64 4.768 8.205 9.619 8.205 4.6 0 8.44-3.204 9.48-7.487.794 1.399 2.127 4.265 1.802 7.343 8.155-.071 4.142-9.394-1.582-10.413m-9.7 7.79c-3.811 0-6.913-3.07-7-6.865 1.392-.506 2.424-2.916 2.424-2.916s.825.283.825 3.005c1.443.503 3.95-4.228 3.95-4.228v3.727c1.59.435 6.604-.141 6.604-.141l.186.157c.002.079.023.16.023.241a7.016 7.016 0 0 1-7.012 7.02m2.043 3.018h-7.57L32.487 37.745l-9.763-12.003H11.625L0 38.504l2.436 2.512 8.322-7.101v13.773h1.669v10.47h-1.06v1.23h4.832v-11.7h1.81v11.7h4.823v-1.23h-1.059v-10.47h2.025V34.174l6.654 6.832 2.719-.67 1.506.377 7.537-8.626.43 3.418-7 12.029h8.073v10.473h-1.06v1.218h4.827v-1.218h.005V47.534h1.805v11.691h4.83v-1.218h-1.06V47.534h6.258l-6.167-12.029.338-4.207 5.891 7.895 3.904-.972-9.342-12.63z"/></svg>