<svg width="64" height="64" viewBox="0 0 64 64" fill="none" xmlns="http://www.w3.org/2000/svg">
<g clip-path="url(#clip0_153_2)">
<path d="M32.0003 43.3418C38.2596 43.3418 43.3337 38.2677 43.3337 32.0085C43.3337 25.7493 38.2596 20.6752 32.0003 20.6752C25.7411 20.6752 20.667 25.7493 20.667 32.0085C20.667 38.2677 25.7411 43.3418 32.0003 43.3418Z" stroke="white" stroke-width="1.33333" stroke-linecap="round" stroke-linejoin="round"/>
<path d="M31.9999 47.7418C40.6892 47.7418 47.7333 40.6978 47.7333 32.0085C47.7333 23.3192 40.6892 16.2751 31.9999 16.2751C23.3107 16.2751 16.2666 23.3192 16.2666 32.0085C16.2666 40.6978 23.3107 47.7418 31.9999 47.7418Z" stroke="white" stroke-width="1.33333" stroke-linecap="round" stroke-linejoin="round"/>
<path d="M32.0003 56.3418C45.4393 56.3418 56.3337 45.4474 56.3337 32.0085C56.3337 18.5696 45.4393 7.67517 32.0003 7.67517C18.5614 7.67517 7.66699 18.5696 7.66699 32.0085C7.66699 45.4474 18.5614 56.3418 32.0003 56.3418Z" stroke="white" stroke-width="1.33333" stroke-linecap="round" stroke-linejoin="round"/>
<path d="M32.0002 60.6751C47.8323 60.6751 60.6668 47.8406 60.6668 32.0085C60.6668 16.1763 47.8323 3.3418 32.0002 3.3418C16.168 3.3418 3.3335 16.1763 3.3335 32.0085C3.3335 47.8406 16.168 60.6751 32.0002 60.6751Z" stroke="white" stroke-width="1.33333" stroke-linecap="round" stroke-linejoin="round"/>
</g>
<defs>
<clipPath id="clip0_153_2">
<rect width="64" height="64" fill="white"/>
</clipPath>
</defs>
</svg>
