<svg xmlns="http://www.w3.org/2000/svg" width="64" height="64" fill="none" viewBox="0 0 64 64"><g stroke="#fff" stroke-linecap="round" stroke-linejoin="round" stroke-width="1.333" clip-path="url(#a)"><path d="M32 43.342c6.26 0 11.334-5.074 11.334-11.333S38.26 20.675 32 20.675 20.667 25.75 20.667 32.008 25.741 43.343 32 43.343"/><path d="M32 47.742c8.69 0 15.733-7.044 15.733-15.733S40.69 16.274 32 16.274 16.267 23.32 16.267 32.01c0 8.689 7.044 15.733 15.733 15.733"/><path d="M32 56.342c13.44 0 24.334-10.895 24.334-24.333 0-13.44-10.895-24.334-24.334-24.334S7.667 18.57 7.667 32.008c0 13.44 10.894 24.334 24.333 24.334"/><path d="M32 60.675c15.832 0 28.667-12.834 28.667-28.666S47.832 3.341 32 3.341 3.334 16.176 3.334 32.009C3.334 47.84 16.168 60.674 32 60.674"/></g><defs><clipPath id="a"><path fill="#fff" d="M0 0h64v64H0z"/></clipPath></defs></svg>