<svg xmlns="http://www.w3.org/2000/svg" width="62" height="64" fill="none" viewBox="0 0 62 64"><path fill="#fff" d="M21.041 44.971h-7.354l-3.651 10.412h3.008L9.793 64l11.81-13.002H16.77zm15.042 0H28.73l-3.651 10.412h3.007L24.834 64l11.81-13.002h-4.831zm15.043 0h-7.354l-3.651 10.412h3.007L39.877 64l11.808-13.002h-4.829zM50.167 17.3h-.015c.007-.193.015-.384.015-.578C50.167 7.486 42.68 0 33.445 0c-8.651 0-15.768 6.57-16.633 14.993a13 13 0 0 0-3.838-.577C5.809 14.416 0 20.225 0 27.39c0 7.166 5.809 12.974 12.974 12.974h37.193c6.369 0 11.533-5.163 11.533-11.533S56.536 17.3 50.167 17.3"/></svg>