<svg xmlns="http://www.w3.org/2000/svg" width="64" height="64" fill="none" viewBox="0 0 64 64"><path fill="#fff" d="M52.825 21.725 42.7 25.65l1.875-11.95L30.15 2 15.725 13.675l3.325 21.1-8.875-3.475-6.95 10.525 10 20.15H46.7l7.4-14.95 6.675-13.175zM51 26.025l-.075 5.475-4.4-1.625zM20.275 59.5l-5.05-20.75-3.7-4.3L19.5 37.7l3.45 21.8zM19.25 14.025l7.2-5.95-2.625 6.25zM35.175 59.5l1.775-17.825 1.575-5.025-6.775 3.925V59.5h-2.825l-2.4-44.725 3.65-9.55 11.8 9.475-3.45 21.95 5.25 5.8L38.25 59.5zm9.8 0h-2.1L53.6 32.525l-.125-5.25 4.425 6.75z"/></svg>