<svg xmlns="http://www.w3.org/2000/svg" width="72" height="72" fill="none" viewBox="0 0 72 72"><circle cx="36" cy="36" r="36" fill="red"/><path fill="#fff" d="m58.496 35.754-21.202 13.18a12.16 12.16 0 0 1-2.597 5.79L16.879 38.06a12.16 12.16 0 0 1 6.008-3.066l13.359-21.49c.477-.769 1.223-.55 1.991-.073s1.266 1.033.789 1.8l-12.209 19.64a12.16 12.16 0 0 1 5.713 2.314l19.26-19.26c.639-.638 1.23-.225 1.87.414.64.64 1.083 1.262.444 1.901L34.868 39.478a12.16 12.16 0 0 1 2.43 5.599l19.469-12.103c.768-.477 1.323.021 1.8.789.478.767.696 1.514-.072 1.991M16.579 55.637c4.281 4.28 10.945 4.72 15.72 1.326L14.801 40.6c-2.894 4.711-2.303 10.956 1.777 15.037"/></svg>