<svg xmlns="http://www.w3.org/2000/svg" xml:space="preserve" width="64" height="64" fill="#fff" viewBox="0 0 32 32"><path d="M3 30v-5.8c0-1.7 1.3-3.1 3-3.1h0c1.6 0 3 1.4 3 3.1V26v-.4c0-1.1.9-1.9 2-1.9h0c1.1 0 2 .9 2 1.9v.4c0 1.6 1.3 3 3 3h0c1.6 0 3-1.3 3-3v-.4c0-1.1.9-1.9 2-1.9h0c1.1 0 2 .9 2 1.9v.4-1.8c0-1.7 1.3-3.1 3-3.1h0c1.6 0 3 1.4 3 3.1V30M13 18h-2l3-5V6l2-3 2 3v7l3 5h-2m-3 1v5" style="fill:none;stroke:#fff;stroke-width:2;stroke-linecap:round;stroke-linejoin:round;stroke-miterlimit:10"/></svg>