<svg xmlns="http://www.w3.org/2000/svg" width="64" height="64" fill="none" viewBox="0 0 64 64"><g clip-path="url(#a)"><path fill="#fff" d="M32.005.004C14.33.004 0 14.33 0 32.001c0 17.676 14.33 31.997 32.005 31.997 17.672 0 31.997-14.323 31.997-31.997C64.002 14.329 49.677.004 32.005.004M9.208 30.688a1.755 1.755 0 0 1-.001-3.508c.972 0 1.756.789 1.756 1.758 0 .966-.784 1.75-1.755 1.75m9.643 1.753c-.966 0-1.75-.788-1.75-1.755s.784-1.75 1.75-1.75c.971 0 1.758.784 1.758 1.75 0 .967-.787 1.755-1.758 1.755m7.017 16.218a3.51 3.51 0 0 1-3.51-3.508 3.507 3.507 0 0 1 3.51-3.504 3.51 3.51 0 0 1 3.51 3.504 3.51 3.51 0 0 1-3.51 3.508m0-32.873a3.509 3.509 0 1 1 0-7.019 3.514 3.514 0 0 1 3.51 3.515 3.51 3.51 0 0 1-3.51 3.504m25.642 2.189a1.536 1.536 0 0 1 0 3.072 1.537 1.537 0 0 1 0-3.072M33.758 30.688a1.75 1.75 0 0 1-1.753-1.75c0-.97.784-1.758 1.753-1.758a1.754 1.754 0 0 1 0 3.508m4.823-19.946c0-1.09.885-1.973 1.97-1.973a1.974 1.974 0 0 1 0 3.949 1.977 1.977 0 0 1-1.97-1.976m4.273 42.525a2.305 2.305 0 0 1 0-4.61 2.306 2.306 0 0 1 2.303 2.305 2.313 2.313 0 0 1-2.303 2.305m.984-11.62a1.316 1.316 0 0 1-1.315-1.321c0-.722.59-1.309 1.315-1.309.73 0 1.32.587 1.32 1.309a1.32 1.32 0 0 1-1.32 1.32m8.987-7.014a2.847 2.847 0 0 1-2.851-2.853 2.845 2.845 0 0 1 2.85-2.845 2.845 2.845 0 0 1 2.847 2.845 2.844 2.844 0 0 1-2.846 2.853"/></g><defs><clipPath id="a"><path fill="#fff" d="M0 0h64v64H0z"/></clipPath></defs></svg>