<svg xmlns="http://www.w3.org/2000/svg" width="64" height="64" fill="none" viewBox="0 0 64 64"><path fill="#fff" d="M58.838 2.5 46.024 6.226l5.188-3.511c-3.276.74-7.413 2.188-12.613 4.524l-8.487 8.848 3.012-6.18c-2.913 1.62-6 3.743-8.975 6.23l-1.975 8.038-.425-5.95c-2.937 2.7-5.7 5.7-7.988 8.862C11.36 30.4 9.48 33.9 8.54 37.388l-3.515-2.35a17 17 0 0 0 2.886 7.9L3.708 41.65c.955 2.938 2.516 4.837 5.156 6.375-1.479 4.163-2.173 8.513-2.918 12.85l2.3.388c2.668-26.588 21.492-43.538 38.504-51.048l.862 2.172C32.4 19.2 20.575 30.7 14.389 47.275a26 26 0 0 0 6.525-.788l.612-7.612 1.638 6.938c1.362-.5 2.612-1.1 3.724-1.8L24.3 38.575l4.1 4.35c1-.8 1.825-1.7 2.45-2.687 3.8-5.938 7.775-11.838 15.6-16.775l-5.713-2.026 8.763.263c1.425-.725 2.925-1.613 4.063-2.45l-6.213-.5 9.337-2.2A28 28 0 0 0 58.7 14.3c2.162-2.743 3.625-5.597 3.275-8.194a4.25 4.25 0 0 0-2.2-3.203 7 7 0 0 0-.937-.403"/></svg>