<svg xmlns="http://www.w3.org/2000/svg" width="203" height="90" fill="none" viewBox="0 0 203 90"><path fill="red" d="M18 22h155v47H18z"/><circle cx="171.5" cy="45.5" r="23.5" fill="red"/><path fill="#fff" d="M54.064 47.2v-5.44H65.04q2.175 0 3.872.896 1.728.896 2.72 2.496 1.024 1.567 1.024 3.648 0 2.048-1.024 3.68a7.2 7.2 0 0 1-2.72 2.592Q67.217 56 65.04 56H54.064v-5.6h9.056q.8 0 1.312-.16.511-.16.768-.512.255-.352.256-.928 0-.576-.256-.928t-.768-.512-1.312-.16zM52.56 33.6h18.4v5.6h-11.2V56h-7.2zm45.389 0L87.42 56h-7.04l3.104-6.944L76.189 33.6h7.68l4.16 12.32h-2.72l5.44-12.32zm4.972 0h7.04V56h-7.04zm4.544 5.6v-5.6h4.256q3.297 0 5.344.928 2.08.928 3.04 2.656.993 1.696.992 4.096 0 2.368-.992 4.096-.96 1.728-3.04 2.656-2.047.928-5.344.928h-4.256v-5.6h4.256q1.312 0 1.984-.544t.672-1.536-.672-1.536-1.984-.544zm22.165 13.92v-5.056h11.84v5.056zm5.856-9.344-2.752 6.176.544 1.6L130.846 56h-8l12.64-24 12.64 24h-8l-2.368-4.224.48-1.824zm19.433 3.744v-6.24h17.92v6.24zm13.536-13.92h7.04V56h-7.04zm-15.04 0h7.04V56h-7.04z"/><circle cx="23.5" cy="45.5" r="23.5" fill="red"/><path fill="#fff" d="m43.449 43.229-15.122 9.4a8.7 8.7 0 0 1-1.852 4.13L13.766 44.874a8.7 8.7 0 0 1 4.285-2.187L27.58 27.36c.341-.548.873-.392 1.421-.052.548.341.903.737.562 1.284L20.855 42.6a8.67 8.67 0 0 1 4.074 1.65l13.737-13.736c.456-.456.878-.161 1.334.294.456.457.773.9.317 1.357l-13.72 13.72a8.7 8.7 0 0 1 1.733 3.993l13.886-8.632c.548-.34.944.015 1.284.563s.496 1.08-.051 1.42M13.553 57.41c3.053 3.053 7.806 3.367 11.211.946l-12.479-11.67c-2.063 3.36-1.642 7.814 1.268 10.724"/></svg>