<svg xmlns="http://www.w3.org/2000/svg" width="30" height="30" fill="none" viewBox="0 0 30 30"><path fill="red" d="M7.782 19.029c-.458-.459-.631-.228-.733-.126-2.64 2.64-4.983 9.009-3.744 8.387 4.51-2.265 5.261-1.59 7.9-4.23.103-.102.338-.27-.134-.742z"/><path fill="red" d="M22.012 18.993c-.12-.38.131-.564.236-.678 5.826-6.29 9.53-14.67 6.785-17.414-2.73-2.73-10.851 1.082-17.14 6.866-.124.114-.369.331-.808.24L9.127 7.54c-.544-.13-1.312.088-1.708.484L.23 15.212c-.396.396-.267.79.285.877l5.2.817c.552.087 1.327-.165 1.723-.56 0 0 .268-.27.537 0l5.668 5.667c.281.281.012.55.012.55-.396.395-.648 1.17-.561 1.723l.817 5.199c.087.553.481.68.876.285l7.19-7.189c.395-.395.612-1.163.483-1.707zm-1.61-9.287a3.117 3.117 0 1 1 4.409-4.41 3.117 3.117 0 0 1-4.408 4.41"/></svg>