<svg xmlns="http://www.w3.org/2000/svg" width="64" height="64" fill="none" viewBox="0 0 64 64"><g clip-path="url(#a)"><path fill="#fff" fill-opacity=".01" d="M64 0H0v64h64z"/><path stroke="#fff" stroke-linecap="round" stroke-linejoin="round" stroke-width="5.333" d="M45.333 8.9c7.97 4.612 13.333 13.23 13.333 23.1M45.333 8.9v9.767m0-9.766h9.766m0 36.432c-4.61 7.971-13.229 13.334-23.1 13.334m23.1-13.334h-9.766m9.766 0V55.1m-36.433 0C10.696 50.49 5.333 41.87 5.333 32m13.333 23.1v-9.767m0 9.766H8.901m0-36.432C13.51 10.696 22.129 5.333 32 5.333M8.9 18.667h9.766m-9.765 0V8.9"/><path stroke="#fff" stroke-linecap="round" stroke-linejoin="round" stroke-width="5.333" d="M55.1 45.333C50.487 53.304 41.87 58.667 32 58.667m23.1-13.334h-9.767m9.766 0V55.1m-36.433 0C10.696 50.487 5.333 41.87 5.333 32m13.333 23.1v-9.767m0 9.766H8.901m0-36.432c4.611-7.971 13.23-13.334 23.1-13.334M8.9 18.667h9.766m-9.766 0V8.9m36.433.001c7.97 4.61 13.333 13.229 13.333 23.1M45.333 8.9v9.766m0-9.766h9.766"/></g><defs><clipPath id="a"><path fill="#fff" d="M0 0h64v64H0z"/></clipPath></defs></svg>