<svg xmlns="http://www.w3.org/2000/svg" width="64" height="64" fill="none" viewBox="0 0 64 64"><path fill="#fff" d="M56.889 12.445H64V7.11h-7.111c-3.477 0-6.44 2.23-7.542 5.334H38.223v15.11H24.89v7.112h-5.383v-2.132a7.11 7.11 0 0 0-4.444-6.592v-4.045c4.848-1.195 8.444-5.57 8.444-10.786V8h-8.444V4.444H9.728V8H1.284v3.111c0 5.217 3.596 9.592 8.444 10.787v4.045a7.11 7.11 0 0 0-4.444 6.592V34.7L0 38.222v13.334h2.667a8 8 0 1 0 16 0H24a8 8 0 1 0 16 0h5.333a8 8 0 1 0 16 0H64V38.222l-5.333-3.555h-7.111v-7.111h-8v-9.778h5.791c1.101 3.104 4.065 5.333 7.542 5.333H64v-5.333h-7.111a2.67 2.67 0 0 1-2.667-2.667 2.67 2.67 0 0 1 2.667-2.667M10.667 54.222a2.667 2.667 0 1 1 0-5.333 2.667 2.667 0 0 1 0 5.333m42.666-5.333a2.667 2.667 0 1 1 0 5.333 2.667 2.667 0 0 1 0-5.333M32 54.222a2.667 2.667 0 1 1 0-5.333 2.667 2.667 0 0 1 0 5.333m13.333-19.555V40H31.111v-5.333z"/></svg>