<svg xmlns="http://www.w3.org/2000/svg" width="85" height="85" fill="none" viewBox="0 0 85 85"><g clip-path="url(#a)"><path fill="#fff" d="m42.45 7.338-2.952 6.688 1.793.791 1.791.79 7.642 3.374-1.58 3.583-7.643-3.373-1.792-.791-1.792-.791-1.24 2.806 1.793.791 1.792.79 3.19 1.409-1.582 3.582-3.19-1.408-1.791-.79-1.792-.79L33.42 27.8l1.792.79 1.792.79 7.643 3.374-1.581 3.582-7.644-3.373-1.79-.79-1.793-.79-1.353 3.064 1.792.791 1.792.79 3.19 1.408-1.58 3.584-3.192-1.41-1.792-.79-1.791-.79-1.564 3.543 1.793.79 1.791.791 7.644 3.374-1.582 3.582-7.643-3.373-1.792-.79-1.791-.79-1.468 3.323 1.791.79 1.793.791 3.19 1.409-1.581 3.582-3.19-1.408-1.792-.79-1.793-.791-1.448 3.284 1.79.791 1.792.791 7.644 3.373-1.582 3.583-7.642-3.373-1.793-.791-1.791-.79-3.057 6.926 25.278 11.155 25.826-58.52z"/></g><defs><clipPath id="a"><path fill="#fff" d="M25.768 0 84.35 25.768 58.584 84.35 0 58.584z"/></clipPath></defs></svg>