<svg version="1.1" id="Icons" xmlns="http://www.w3.org/2000/svg" xmlns:xlink="http://www.w3.org/1999/xlink" viewBox="0 0 32 32" xml:space="preserve" width="64px" height="64px" fill="#fff"><g id="SVGRepo_bgCarrier" stroke-width="0"></g><g id="SVGRepo_tracerCarrier" stroke-linecap="round" stroke-linejoin="round"></g><g id="SVGRepo_iconCarrier"> <style type="text/css"> .st0{fill:none;stroke:#fff;stroke-width:2;stroke-linecap:round;stroke-linejoin:round;stroke-miterlimit:10;} </style> <circle class="st0" cx="16" cy="9" r="5"></circle> <path class="st0" d="M14,9c0,1.1,0.9,2,2,2s2-0.9,2-2H14z"></path> <path class="st0" d="M16,23v6h-5V16l-2.5,2.5c-0.8,0.8-2.2,0.8-3,0l0,0c-0.8-0.8-0.8-2.2,0-3l1.4-1.4C8.2,12.8,10.1,12,12,12h0"></path> <path class="st0" d="M16,22v7h5V16l2.5,2.5c0.8,0.8,2.2,0.8,3,0l0,0c0.8-0.8,0.8-2.2,0-3l-1.4-1.4C23.8,12.8,21.9,12,20,12h0"></path> <path class="st0" d="M8,13V5c0-1.1,0.9-2,2-2h12c1.1,0,2,0.9,2,2v8"></path> <path class="st0" d="M11,23h-1c-1.1,0-2-0.9-2-2v-2"></path> <path class="st0" d="M24,19v2c0,1.1-0.9,2-2,2h-1"></path> </g></svg>