<svg xmlns="http://www.w3.org/2000/svg" xml:space="preserve" id="Icons" width="64" height="64" fill="#fff" viewBox="0 0 32 32"><g id="SVGRepo_iconCarrier"><style>.st0{fill:none;stroke:#fff;stroke-width:2;stroke-linecap:round;stroke-linejoin:round;stroke-miterlimit:10}</style><circle cx="16" cy="9" r="5" class="st0"/><path d="M14 9c0 1.1.9 2 2 2s2-.9 2-2zm2 14v6h-5V16l-2.5 2.5c-.8.8-2.2.8-3 0h0c-.8-.8-.8-2.2 0-3l1.4-1.4C8.2 12.8 10.1 12 12 12h0m4 10v7h5V16l2.5 2.5c.8.8 2.2.8 3 0h0c.8-.8.8-2.2 0-3l-1.4-1.4C23.8 12.8 21.9 12 20 12h0" class="st0"/><path d="M8 13V5c0-1.1.9-2 2-2h12c1.1 0 2 .9 2 2v8M11 23h-1c-1.1 0-2-.9-2-2v-2m16 0v2c0 1.1-.9 2-2 2h-1" class="st0"/></g></svg>