<svg xmlns="http://www.w3.org/2000/svg" width="64" height="64" fill="none" viewBox="0 0 64 64"><path fill="#fff" d="M24.269 7.765h-8.996v4.174h8.996zm0 8.621h-8.996v4.173h8.996zm0 8.62h-8.996v4.174h8.996zm0 8.619h-8.996V37.8h8.996zm0 8.621h-8.996v4.174h8.996zm20.72 3.412V0H31.725v45.657a10.32 10.32 0 0 0-3.738 8.13A10.32 10.32 0 0 0 31 60.923 10.3 10.3 0 0 0 38.36 64a10.3 10.3 0 0 0 7.243-2.952 10.3 10.3 0 0 0 3.125-7.419c0-3.108-1.38-6.01-3.74-7.971m-9.09-41.484h4.916V26.55h-4.916zm2.458 53.321A3.8 3.8 0 0 1 34.56 53.7a3.8 3.8 0 0 1 3.797-3.797 3.8 3.8 0 0 1 3.797 3.797 3.8 3.8 0 0 1-3.797 3.796"/></svg>