<svg xmlns="http://www.w3.org/2000/svg" width="64" height="64" fill="none" viewBox="0 0 64 64"><path fill="#fff" d="M39.981 8a2.667 2.667 0 0 1-2.648-2.667c0-1.435 1.246-2.67 2.679-2.666 1.776.018 3.6.49 5.18 1.281 1.317.658 2.714 1.687 3.777 3.281 1.073 1.61 1.698 3.638 1.698 6.104s-.625 4.494-1.698 6.105c-1.063 1.593-2.46 2.622-3.776 3.28-1.576.788-3.414 1.277-5.187 1.282H24a2.667 2.667 0 0 1 0-5.333h16.001a6.9 6.9 0 0 0 2.807-.719c.683-.342 1.286-.812 1.723-1.469.427-.64.802-1.612.802-3.146s-.375-2.506-.802-3.145c-.437-.657-1.04-1.128-1.724-1.47A6.9 6.9 0 0 0 39.982 8M5.333 18.667a2.667 2.667 0 0 0 0 5.333H16a2.667 2.667 0 0 0 0-5.333zm0 10.666a2.667 2.667 0 1 0 0 5.334H32a2.667 2.667 0 1 0 0-5.334zm0 10.667a2.667 2.667 0 0 0 0 5.333h8a2.667 2.667 0 1 0 0-5.333zM48 48a2.667 2.667 0 0 1 2.648-2.667 6.9 6.9 0 0 0 2.826-.718c.684-.342 1.286-.813 1.724-1.47.426-.639.802-1.612.802-3.145s-.376-2.506-.802-3.146c-.438-.656-1.04-1.127-1.724-1.469a6.9 6.9 0 0 0-2.806-.718H40a2.667 2.667 0 1 1 0-5.334h10.672c1.774.006 3.611.494 5.187 1.282 1.316.658 2.714 1.687 3.776 3.28 1.074 1.611 1.698 3.638 1.698 6.105s-.624 4.494-1.697 6.104c-1.063 1.594-2.46 2.623-3.777 3.281-1.581.791-3.404 1.263-5.18 1.282C49.245 50.67 48 49.435 48 48m-16.019 8a2.667 2.667 0 0 0-2.648 2.667c0 1.435 1.246 2.67 2.679 2.666 1.776-.018 3.6-.49 5.18-1.281 1.317-.658 2.714-1.687 3.777-3.281 1.073-1.61 1.698-3.638 1.698-6.104s-.625-4.494-1.698-6.105c-1.063-1.593-2.46-2.622-3.776-3.28-1.576-.788-3.414-1.277-5.187-1.282H21.333a2.667 2.667 0 0 0 0 5.333h10.668c.96.033 1.95.29 2.807.719.683.342 1.286.813 1.723 1.469.427.64.802 1.612.802 3.146s-.375 2.506-.802 3.145c-.437.657-1.04 1.128-1.724 1.47a6.9 6.9 0 0 1-2.826.718"/></svg>